<?xml version="1.0" encoding="UTF-8"?>
<!DOCTYPE svg PUBLIC "-//W3C//DTD SVG 1.1//EN" "http://www.w3.org/Graphics/SVG/1.1/DTD/svg11.dtd">
<!-- Creator: CorelDRAW 2020 (64-Bit) -->
<svg xmlns="http://www.w3.org/2000/svg" xml:space="preserve" width="13.4944mm" height="12.0404mm" version="1.1" style="shape-rendering:geometricPrecision; text-rendering:geometricPrecision; image-rendering:optimizeQuality; fill-rule:evenodd; clip-rule:evenodd"
viewBox="0 0 46.34 41.34"
 xmlns:xlink="http://www.w3.org/1999/xlink"
 xmlns:xodm="http://www.corel.com/coreldraw/odm/2003">
 <defs>
  <style type="text/css">
   <![CDATA[
    .fil1 {fill:#FABF00}
    .fil0 {fill:url(#id0)}
   ]]>
  </style>
  <linearGradient id="id0" gradientUnits="userSpaceOnUse" x1="101.66" y1="28.41" x2="97.92" y2="-0.17">
   <stop offset="0" style="stop-opacity:1; stop-color:#007E8B"/>
   <stop offset="1" style="stop-opacity:1; stop-color:#009C4D"/>
  </linearGradient>
 </defs>
 <g id="Слой_x0020_1">
  <metadata id="CorelCorpID_0Corel-Layer"/>
  <path class="fil0" d="M41.11 41.34l0 0c2.87,0 5.23,-2.35 5.23,-5.23l0 -30.89c0,-1.34 -0.51,-2.68 -1.53,-3.7l0 0c-2.03,-2.03 -5.36,-2.03 -7.39,0l-11.08 11.08c-2.03,2.03 -2.03,5.36 0,7.39l0 0c2.03,2.03 5.36,2.03 7.39,0l2.15 -2.15 0 18.27c0,2.87 2.35,5.23 5.23,5.23z"/>
  <path class="fil1" d="M0 5.23c-0,-1.34 0.51,-2.68 1.52,-3.7l0 0c2.03,-2.03 5.36,-2.03 7.39,0l11.08 11.08c2.03,2.03 2.03,5.36 0,7.39l-0 0c-2.03,2.03 -5.36,2.03 -7.39,0l-2.15 -2.15 0 18.27c0,2.87 -2.35,5.23 -5.23,5.23l-0 0c-2.87,0 -5.23,-2.35 -5.23,-5.23l0 -30.89z"/>
 </g>
</svg>
